<?xml version="1.0" standalone="no"?><!DOCTYPE svg PUBLIC "-//W3C//DTD SVG 1.1//EN" "http://www.w3.org/Graphics/SVG/1.1/DTD/svg11.dtd"><svg t="1601110912337" class="icon" viewBox="0 0 1024 1024" version="1.1" xmlns="http://www.w3.org/2000/svg" p-id="1157" xmlns:xlink="http://www.w3.org/1999/xlink" width="200" height="200"><defs><style type="text/css"></style></defs><path d="M841.142857 987.428571l36.571429-36.571428H219.428571l36.571429 36.571428-36.571429 36.571429h658.285715l-36.571429-36.571429z m36.571429 36.571429v-73.142857 73.142857H219.428571h658.285715z" p-id="1158"></path><path d="M472.649143 146.285714h78.701714c0-40.374857 35.328-73.142857 78.774857-73.142857h236.324572c43.52 0 78.774857 32.768 78.774857 73.142857v731.428572c0 40.374857-35.254857 73.142857-78.774857 73.142857h-236.251429v73.142857h236.251429c87.04 0 157.549714-65.462857 157.549714-146.285714V146.285714c0-80.822857-70.509714-146.285714-157.549714-146.285714h-236.251429c-87.04 0-157.549714 65.462857-157.549714 146.285714z m78.701714 0c0-40.374857 35.328-73.142857 78.774857-73.142857h236.324572c43.52 0 78.774857 32.768 78.774857 73.142857v731.428572c0 40.374857-35.254857 73.142857-78.774857 73.142857h-236.251429v73.142857h236.251429c87.04 0 157.549714-65.462857 157.549714-146.285714V146.285714c0-80.822857-70.509714-146.285714-157.549714-146.285714h-236.251429c-87.04 0-157.549714 65.462857-157.549714 146.285714h78.701714z" p-id="1159"></path><path d="M551.350857 146.285714H472.649143c0-40.374857-35.328-73.142857-78.774857-73.142857H157.549714c-43.52 0-78.774857 32.768-78.774857 73.142857v731.428572c0 40.374857 35.254857 73.142857 78.774857 73.142857h236.251429v73.142857h-236.251429C70.509714 1024 0 958.537143 0 877.714286V146.285714C0 65.462857 70.509714 0 157.549714 0h236.251429c87.04 0 157.549714 65.462857 157.549714 146.285714z m0 0H472.649143c0-40.374857-35.328-73.142857-78.774857-73.142857H157.549714c-43.52 0-78.774857 32.768-78.774857 73.142857v731.428572c0 40.374857 35.254857 73.142857 78.774857 73.142857h236.251429v73.142857h-236.251429C70.509714 1024 0 958.537143 0 877.714286V146.285714C0 65.462857 70.509714 0 157.549714 0h236.251429c87.04 0 157.549714 65.462857 157.549714 146.285714z" p-id="1160"></path><path d="M472.649143 73.142857h78.701714v73.142857L472.649143 1024V73.142857z m0 0h78.701714v950.857143L472.649143 146.285714V73.142857z m73.142857 73.142857h5.558857l-5.558857-5.632V73.142857L512 106.934857 478.208 73.142857v67.510857L472.649143 146.285714h5.558857v804.571429h-5.558857l5.558857 5.632V1024L512 990.208l33.792 33.792v-67.510857L551.350857 950.857143h-5.558857V146.285714z m-73.142857-73.142857h78.701714v950.857143H472.649143V73.142857z m0 877.714286L512 365.714286l39.350857 585.142857v73.142857H472.649143v-73.142857z" p-id="1161"></path></svg>